<svg width="38" height="40" viewBox="0 0 38 40" fill="none" xmlns="http://www.w3.org/2000/svg">
<g clip-path="url(#clip0_260_438)">
<path fill-rule="evenodd" clip-rule="evenodd" d="M25.2578 8.8216C26.3315 9.43924 27.2991 10.2181 28.1252 11.1295C28.9341 12.0214 29.5827 13.0405 30.0436 14.1439C30.3054 14.7766 30.5115 15.43 30.6597 16.097C31.0034 17.5949 31.0306 19.1457 30.7396 20.6543C30.5818 21.4697 30.342 22.2678 30.0236 23.0371L29.9836 23.1185C29.2975 24.7461 28.1219 26.3281 26.9862 27.8906C26.4034 28.6784 25.8273 29.4596 25.341 30.2181C25.1883 30.4545 24.9722 30.6454 24.7161 30.7699C24.4601 30.8945 24.174 30.948 23.889 30.9245L14.7103 32.2591C14.3344 32.3095 13.9526 32.2247 13.6359 32.0205C13.3192 31.8163 13.0891 31.5066 12.9885 31.1491C12.7581 30.4968 12.4752 29.8633 12.1426 29.2545C11.8649 28.7333 11.5298 28.2432 11.1435 27.793C10.6672 27.2624 10.1843 26.722 9.71472 26.1003C9.1756 25.3945 8.71034 24.6377 8.32594 23.8411C7.92293 23.007 7.60931 22.1343 7.39009 21.237C7.17333 20.3356 7.06712 19.4122 7.07371 18.4863C7.07382 17.5212 7.19801 16.5599 7.44338 15.625C7.70965 14.6255 8.09179 13.6589 8.58238 12.7441L8.64899 12.6302C9.28376 11.5771 10.0852 10.6289 11.0236 9.82095C11.9592 9.02241 13.0238 8.38111 14.1741 7.92316L14.2674 7.89061C15.1246 7.55735 16.0188 7.32355 16.9317 7.194C17.8994 7.06152 18.8796 7.03967 19.8525 7.12889C20.803 7.21377 21.7412 7.40043 22.65 7.68553C23.5553 7.96891 24.4255 8.34995 25.2444 8.8216H25.2578ZM23.9256 37.2266C23.4219 38.0748 22.7011 38.7804 21.8341 39.2741C21.1021 39.6907 20.2814 39.9358 19.4362 39.9902C18.5913 40.0402 17.7474 39.8777 16.985 39.5182C16.4354 39.2534 15.9399 38.8927 15.523 38.4538L23.9456 37.2266H23.9256ZM24.7282 32.6204V33.1575V33.3463C24.7549 33.6985 24.7549 34.0521 24.7282 34.4043L24.565 35.1823L14.3606 36.6667L14.1808 36.2663L13.7845 34.6712V34.209L24.7049 32.6204H24.7282ZM18.7635 1.2272C18.7696 0.896808 18.9093 0.582231 19.1521 0.352258C19.3949 0.122285 19.7209 -0.00437035 20.059 -1.32652e-05H20.1489C20.471 0.0279246 20.7703 0.174074 20.9866 0.409019C21.2028 0.643964 21.32 0.950262 21.3145 1.26626C21.3163 1.28793 21.3163 1.3097 21.3145 1.33137L21.2446 4.00389C21.2464 4.03208 21.2464 4.06034 21.2446 4.08853C21.2193 4.40453 21.0721 4.69934 20.8328 4.91328C20.5935 5.12722 20.28 5.24432 19.9557 5.24087H19.8658C19.5425 5.21531 19.2413 5.07064 19.023 4.83614C18.8047 4.60164 18.6857 4.29485 18.6902 3.97785C18.6883 3.95727 18.6883 3.93658 18.6902 3.916L18.7568 1.23046L18.7635 1.2272ZM4.66249 5.90819C4.47615 5.74016 4.34512 5.52179 4.28602 5.28082C4.22693 5.03984 4.24245 4.78714 4.33061 4.5548C4.41876 4.32247 4.57558 4.12098 4.78114 3.97595C4.9867 3.83091 5.23173 3.74886 5.4851 3.74022C5.65269 3.73273 5.82014 3.75763 5.97787 3.81349C6.1356 3.86935 6.28051 3.95507 6.40429 4.06574L8.45583 5.93098C8.7024 6.15891 8.84819 6.47193 8.86214 6.80337C8.86998 6.9672 8.84459 7.13092 8.78744 7.28511C8.73028 7.4393 8.64248 7.58092 8.5291 7.70181C8.29777 7.94349 7.97822 8.08619 7.63988 8.09895C7.47223 8.10698 7.30463 8.08233 7.14682 8.02645C6.98901 7.97056 6.84416 7.88455 6.72068 7.77342L4.66249 5.90819ZM1.30543 19.6875C0.968414 19.6928 0.642745 19.5685 0.398563 19.3414C0.15438 19.1143 0.0112187 18.8026 -8.9379e-05 18.4733C-0.00721652 18.3078 0.0193857 18.1425 0.0781709 17.9872C0.136956 17.8318 0.226752 17.6894 0.342338 17.5682C0.457925 17.4471 0.596996 17.3496 0.75147 17.2814C0.905943 17.2133 1.07274 17.1758 1.24215 17.1712L4.04303 17.0801C4.21209 17.0731 4.38089 17.099 4.53964 17.1562C4.69838 17.2135 4.84393 17.301 4.96784 17.4136C5.09175 17.5263 5.19156 17.6618 5.26148 17.8124C5.33141 17.963 5.37006 18.1257 5.3752 18.291V18.3105V18.3561C5.36933 18.6776 5.23698 18.9844 5.00563 19.213C4.77429 19.4415 4.46175 19.5742 4.13295 19.5833H4.083L1.31875 19.6712L1.30543 19.6875ZM36.6078 15.8073H36.6344C36.9552 15.7885 37.2715 15.8884 37.5203 16.0872C37.6514 16.1905 37.7601 16.3182 37.8401 16.463C37.9202 16.6077 37.97 16.7666 37.9866 16.9303C37.9885 16.9444 37.9885 16.9586 37.9866 16.9726C38.0072 17.2949 37.8995 17.6125 37.6859 17.8589C37.4724 18.1052 37.1696 18.2613 36.8409 18.2943L34.0534 18.584C33.8864 18.6003 33.7178 18.5842 33.5572 18.5367C33.3967 18.4893 33.2472 18.4113 33.1175 18.3073C32.9215 18.1519 32.7768 17.9433 32.7018 17.7078C32.6268 17.4722 32.6248 17.2203 32.696 16.9836C32.7672 16.7469 32.9085 16.5361 33.102 16.3778C33.2956 16.2194 33.5327 16.1206 33.7836 16.0937C34.7128 15.9928 35.6486 15.8887 36.5812 15.8008L36.6078 15.8073ZM31.0826 4.9121C31.1748 4.77475 31.2939 4.65657 31.433 4.56435C31.5721 4.47213 31.7284 4.40768 31.8931 4.37471C32.0577 4.34173 32.2274 4.34089 32.3924 4.37222C32.5574 4.40355 32.7144 4.46644 32.8544 4.55728C32.9951 4.64692 33.1158 4.76353 33.2091 4.90005C33.3024 5.03656 33.3664 5.19016 33.3973 5.35155C33.4626 5.67672 33.3931 6.01393 33.2041 6.28905L31.6455 8.5677C31.5544 8.70739 31.4355 8.82778 31.2959 8.92172C31.1563 9.01566 30.9989 9.08124 30.8329 9.11457C30.5006 9.1779 30.1562 9.11128 29.8737 8.92902C29.5938 8.74432 29.3981 8.4608 29.3275 8.13801C29.2622 7.81284 29.3317 7.47563 29.5207 7.20051L31.0826 4.92186V4.9121ZM12.7321 26.3249C11.7622 25.3302 10.9505 24.1989 10.3242 22.9687C9.64344 21.5923 9.28939 20.0835 9.28843 18.5547C9.32236 16.9114 9.7574 15.2999 10.5573 13.8542C10.5642 13.844 10.5698 13.8331 10.574 13.8216C11.5882 12.1027 13.158 10.7618 15.0367 10.0098C16.5073 9.43198 18.0985 9.20868 19.676 9.35871C21.2396 9.49604 22.7531 9.96839 24.1088 10.7422C25.845 11.7211 27.2037 13.2309 27.9754 15.0391C28.4659 16.1862 28.7185 17.4172 28.7185 18.6605C28.7185 19.9038 28.4659 21.1347 27.9754 22.2819C27.0795 24.4141 25.028 26.6927 23.6825 28.776C23.6089 28.7613 23.5329 28.7613 23.4593 28.776L14.7736 30.0293C14.3343 28.6813 13.642 27.4251 12.7321 26.3249Z" fill="white"/>
</g>
<defs>
<clipPath id="clip0_260_438">
<rect width="38" height="40" fill="white"/>
</clipPath>
</defs>
</svg>
