<svg width="104" height="104" viewBox="0 0 104 104" fill="none" xmlns="http://www.w3.org/2000/svg">
<g filter="url(#filter0_d_260_276)">
<circle cx="52" cy="48" r="48" fill="white"/>
</g>
<path d="M52 20C59.7306 20 66.7317 23.1347 71.798 28.202C76.8653 33.2683 80 40.2694 80 48C80 55.7306 76.8653 62.7317 71.798 67.798C66.7317 72.8653 59.7306 76 52 76C44.2694 76 37.2683 72.8653 32.202 67.798C27.1347 62.7317 24 55.7306 24 48C24 40.2694 27.1347 33.2683 32.202 28.202C37.2683 23.1347 44.2694 20 52 20Z" fill="#999999"/>
<path d="M52.0002 22.1309C59.1413 22.1309 65.613 25.0271 70.2932 29.7073L70.4124 29.8363C75.0215 34.5088 77.8685 40.9237 77.8685 47.9991C77.8685 55.1424 74.9712 61.6119 70.291 66.2921L70.1609 66.4113C65.4884 71.0226 59.0702 73.8696 52.0002 73.8696C44.8657 73.8696 38.3962 70.9701 33.7149 66.2866C29.0293 61.6119 26.1309 55.1424 26.1309 47.9991C26.1309 40.8559 29.0271 34.3874 33.7073 29.7073C38.3874 25.0271 44.857 22.1309 52.0002 22.1309Z" fill="white"/>
<path d="M52 24.3306C56.3182 24.3306 60.3661 25.4878 63.853 27.5068H40.1471C43.634 25.4878 47.6819 24.3306 52 24.3306ZM69.045 31.5799C70.0469 32.6168 70.9504 33.7478 71.7488 34.9542H32.2502C33.0475 33.7412 33.9554 32.607 34.954 31.5799H69.045ZM73.9024 39.0142C74.3508 40.1046 74.7183 41.2323 75.0005 42.396H28.9996C29.285 41.2345 29.6591 40.1101 30.0977 39.0142H73.9024ZM75.6174 46.4604C75.6502 46.9723 75.6688 47.4853 75.6688 47.9993C75.6688 48.6195 75.6447 49.2353 75.5977 49.8423H28.4024C28.3565 49.2309 28.3313 48.6107 28.3313 47.9993C28.3313 47.482 28.3499 46.969 28.3827 46.4604H75.6174ZM74.9261 53.9045C74.6298 55.0603 74.2452 56.1917 73.7755 57.2885H30.2246C29.7597 56.1926 29.3682 55.0584 29.074 53.9045H74.9261ZM71.5465 61.3485C70.7119 62.567 69.7691 63.7067 68.7268 64.7468H35.2733C34.2343 63.7067 33.2882 62.567 32.4536 61.3485H71.5465ZM63.3138 68.7948C59.9385 70.629 56.0775 71.6703 52 71.6703C47.9018 71.6703 44.0463 70.6279 40.6863 68.7948H63.3138Z" fill="#B22234"/>
<path d="M53.33 24.3688V50.0074H28.4177C28.3597 49.3435 28.3313 48.6774 28.3313 47.9993C28.3313 34.9279 38.9275 24.3306 52 24.3306C52.4463 24.3306 52.8904 24.3448 53.33 24.3688Z" fill="#3C3B6E"/>
<path d="M29.5585 40.4599L29.6657 40.7946L29.4907 40.6656L29.5585 40.4599ZM50.2621 45.9189L51.1382 48.616L48.8457 46.9481H51.6774L49.3838 48.616L50.2621 45.9189ZM50.2621 40.706L51.1382 43.3989L48.8457 41.7342H51.6774L49.3838 43.3989L50.2621 40.706ZM50.2621 35.49L51.1382 38.186L48.8457 36.517H51.6774L49.3838 38.186L50.2621 35.49ZM50.2621 30.2771L51.1382 32.97L48.8457 31.3042H51.6774L49.3838 32.97L50.2621 30.2771ZM50.2621 25.0632L51.1382 27.7571L48.8457 26.0903H51.6774L49.3838 27.7571L50.2621 25.0632ZM47.1909 43.3125L48.0692 46.0074L45.7745 44.3395H48.6062L46.3246 46.0074L47.1909 43.3125ZM47.1909 38.0985L48.0692 40.7946L45.7745 39.1256H48.6062L46.3246 40.7946L47.1909 38.0985ZM47.1909 32.8857L48.0692 35.5785L45.7745 33.9128H48.6062L46.3246 35.5785L47.1909 32.8857ZM47.1909 27.6685L48.0692 30.3646L45.7745 28.6967H48.6062L46.3246 30.3646L47.1909 27.6685ZM44.1317 45.9189L45.0099 48.616L42.7153 46.9481H45.5492L43.2556 48.616L44.1317 45.9189ZM44.1317 40.706L45.0099 43.3989L42.7153 41.7342H45.5492L43.2556 43.3989L44.1317 40.706ZM44.1317 35.49L45.0099 38.186L42.7153 36.517H45.5492L43.2556 38.186L44.1317 35.49ZM44.1317 30.2771L45.0099 32.97L42.7153 31.3042H45.5492L43.2556 32.97L44.1317 30.2771ZM44.311 25.609L45.0099 27.7571L42.8301 26.1734L43.0335 26.0903H45.5492L43.2556 27.7571L43.9085 25.7512L44.311 25.609ZM41.0615 43.3125L41.9376 46.0074L39.644 44.3395H42.4779L40.1832 46.0074L41.0615 43.3125ZM41.0615 38.0985L41.9376 40.7946L39.644 39.1256H42.4779L40.1832 40.7946L41.0615 38.0985ZM41.0615 32.8857L41.9376 35.5785L39.644 33.9128H42.4779L40.1832 35.5785L41.0615 32.8857ZM41.0615 27.6685L41.9376 30.3646L39.644 28.6967H42.4779L40.1832 30.3646L41.0615 27.6685ZM38.0023 45.9189L38.8685 48.616L36.587 46.9481H39.4187L37.124 48.616L38.0023 45.9189ZM38.0023 40.706L38.8685 43.3989L36.587 41.7342H39.4187L37.124 43.3989L38.0023 40.706ZM38.0023 35.49L38.8685 38.186L36.587 36.517H39.4187L37.124 38.186L38.0023 35.49ZM38.0023 30.2771L38.8685 32.97L36.587 31.3042H39.4187L37.124 32.97L38.0023 30.2771ZM34.931 43.3125L35.8093 46.0074L33.5157 44.3395H36.3485L34.0549 46.0074L34.931 43.3125ZM34.931 38.0985L35.8093 40.7946L33.5157 39.1256H36.3485L34.0549 40.7946L34.931 38.0985ZM34.931 32.8857L35.8093 35.5785L33.5157 33.9128H36.3485L34.0549 35.5785L34.931 32.8857ZM31.862 45.9189L32.7381 48.616L30.4434 46.9481H33.2893L30.9837 48.616L31.862 45.9189ZM31.862 40.706L32.7381 43.3989L30.4434 41.7342H33.2893L30.9837 43.3989L31.862 40.706ZM31.8773 35.537L32.7381 38.186L31.0581 36.9643L31.2987 36.517H33.2893L30.9837 38.186L31.8149 35.6354L31.8773 35.537ZM28.8028 43.3125L29.6657 46.0074L28.5031 45.1576L28.4517 45.6246L30.2181 44.3395H28.6124C28.6649 44.0092 28.724 43.681 28.7896 43.3562L28.8028 43.3125ZM30.054 39.1256H30.2181L29.984 39.2973L30.054 39.1256Z" fill="white"/>
<defs>
<filter id="filter0_d_260_276" x="0" y="0" width="104" height="104" filterUnits="userSpaceOnUse" color-interpolation-filters="sRGB">
<feFlood flood-opacity="0" result="BackgroundImageFix"/>
<feColorMatrix in="SourceAlpha" type="matrix" values="0 0 0 0 0 0 0 0 0 0 0 0 0 0 0 0 0 0 127 0" result="hardAlpha"/>
<feOffset dy="4"/>
<feGaussianBlur stdDeviation="2"/>
<feComposite in2="hardAlpha" operator="out"/>
<feColorMatrix type="matrix" values="0 0 0 0 0 0 0 0 0 0 0 0 0 0 0 0 0 0 0.25 0"/>
<feBlend mode="normal" in2="BackgroundImageFix" result="effect1_dropShadow_260_276"/>
<feBlend mode="normal" in="SourceGraphic" in2="effect1_dropShadow_260_276" result="shape"/>
</filter>
</defs>
</svg>
