<svg width="104" height="104" viewBox="0 0 104 104" fill="none" xmlns="http://www.w3.org/2000/svg">
<g filter="url(#filter0_d_260_241)">
<circle cx="52" cy="48" r="48" fill="white"/>
</g>
<path d="M52.5 19C60.3687 19 67.4948 22.1907 72.6515 27.3485C77.8093 32.5052 81 39.6313 81 47.5C81 55.3687 77.8093 62.4948 72.6515 67.6515C67.4948 72.8093 60.3687 76 52.5 76C44.6313 76 37.5052 72.8093 32.3485 67.6515C27.1907 62.4948 24 55.3687 24 47.5C24 39.6313 27.1907 32.5052 32.3485 27.3485C37.5052 22.1907 44.6313 19 52.5 19Z" fill="#999999"/>
<path d="M52.4987 21.1689C59.7695 21.1689 66.3546 24.1169 71.1183 28.8806C75.882 33.6444 78.8311 40.2283 78.8311 47.4992C78.8311 54.77 75.882 61.3551 71.1183 66.1188C66.3546 70.8825 59.7695 73.8316 52.4987 73.8316C45.2367 73.8316 38.6517 70.8803 33.8868 66.1132C29.1175 61.3551 26.1685 54.77 26.1685 47.4992C26.1685 40.2283 29.1164 33.6444 33.8802 28.8806C38.6439 24.1169 45.2278 21.1689 52.4987 21.1689Z" fill="white"/>
<path d="M52.4991 23.4072C61.8952 23.4072 70.0333 28.7833 74.0044 36.6263H30.9961C34.9683 28.7833 43.1064 23.4072 52.4991 23.4072Z" fill="#FF9933"/>
<path d="M30.7217 57.8132H74.2777C70.4135 65.9602 62.1162 71.5923 52.4986 71.5923C42.8832 71.5923 34.587 65.9602 30.7217 57.8132Z" fill="#128807"/>
<path fill-rule="evenodd" clip-rule="evenodd" d="M52.4986 39.0276C57.1799 39.0276 60.974 42.8217 60.974 47.5008C60.974 52.181 57.1799 55.9751 52.4986 55.9751C47.8195 55.9751 44.0254 52.181 44.0254 47.5008C44.0254 42.8217 47.8195 39.0276 52.4986 39.0276ZM53.9803 47.4251C53.9759 47.346 53.9659 47.2681 53.9503 47.1924L55.431 46.9786L59.6625 45.5826L55.2985 46.4888L53.9113 47.0443C53.8868 46.9686 53.8568 46.8963 53.8212 46.8272L55.1949 46.2383L58.92 43.7935C58.8198 43.6199 58.714 43.4507 58.6005 43.287L58.6083 43.2814C58.4457 43.4072 58.213 43.375 58.0872 43.2135C58.0292 43.1366 58.0032 43.0401 58.0148 42.9443C58.0265 42.8486 58.0748 42.7611 58.1496 42.7003C58.0202 42.5475 57.8842 42.4005 57.7421 42.2594V42.2572L54.4168 45.2241L53.4938 46.4009C53.4348 46.3474 53.3714 46.2995 53.3068 46.2561L54.2019 45.0593L56.2069 41.0794L53.7633 44.8055L53.1743 46.1804C53.1053 46.1448 53.0318 46.1147 52.955 46.0902L53.5128 44.7031L54.419 40.339L53.0207 44.5706L52.8092 46.0513C52.7335 46.0357 52.6555 46.0257 52.5765 46.0201L52.7546 44.535L52.4986 40.0874C52.2982 40.0874 52.0989 40.0975 51.9007 40.1119L51.8996 40.1008C51.9263 40.3045 51.7827 40.4904 51.5801 40.5172C51.4842 40.5298 51.3871 40.5043 51.3097 40.4463C51.2323 40.3882 51.1807 40.3022 51.166 40.2066C50.7674 40.2789 50.3811 40.3836 50.0082 40.5172C50.0805 40.7042 49.9904 40.9179 49.8033 40.9936C49.6185 41.0693 49.4048 40.9847 49.3235 40.801C49.142 40.8879 48.9639 40.9825 48.7913 41.0816L51.2361 44.8055L51.825 46.1804C51.8941 46.1448 51.9664 46.1147 52.0421 46.0902L51.4866 44.7031L50.5804 40.339L51.9776 44.5706L52.1902 46.0513C52.2659 46.0357 52.3438 46.0257 52.4229 46.0201L52.2447 44.535L52.4986 40.0874C52.7001 40.0874 52.9005 40.0963 53.0986 40.1119L53.0997 40.1008C53.0872 40.1983 53.1137 40.2969 53.1736 40.3749C53.2335 40.4529 53.3218 40.5041 53.4193 40.5172C53.6185 40.5439 53.8033 40.4047 53.8334 40.2066C54.232 40.2789 54.6183 40.3836 54.9923 40.5172C54.92 40.7042 55.0101 40.9179 55.1949 40.9936C55.382 41.0693 55.5946 40.9847 55.6759 40.801C56.041 40.9736 56.3862 41.1729 56.7146 41.4011L56.7201 41.3933C56.5943 41.5558 56.6266 41.7885 56.788 41.9132C56.8664 41.9726 56.965 41.9988 57.0625 41.9861C57.16 41.9734 57.2486 41.9228 57.3091 41.8453L57.3013 41.8542C57.453 41.9824 57.5994 42.1168 57.7399 42.2572H57.7421L54.7763 45.5848L53.6007 46.5077C53.6542 46.5667 53.7009 46.628 53.7432 46.6948L54.9411 45.7975L58.92 43.7935C59.0191 43.9672 59.1137 44.1442 59.2005 44.3257C59.1116 44.3641 59.0415 44.4361 59.0054 44.526C58.9694 44.6158 58.9703 44.7163 59.0079 44.8055C59.0836 44.9914 59.2952 45.0816 59.4844 45.0092C59.6169 45.3811 59.7215 45.7696 59.7939 46.1682C59.6985 46.1832 59.6127 46.2349 59.5549 46.3123C59.4971 46.3896 59.4718 46.4866 59.4844 46.5823C59.51 46.7849 59.6971 46.9274 59.8997 46.9007L59.8896 46.9029C59.9041 47.1 59.9141 47.2993 59.9141 47.5008L55.4666 47.2469L53.9803 47.4251ZM48.7913 41.0816L50.7964 45.0593L51.6937 46.2561C51.6269 46.2995 51.5645 46.3474 51.5066 46.4009L50.5826 45.2241L47.2572 42.2594C47.3986 42.1181 47.5467 41.9822 47.6981 41.852C47.8239 42.0067 48.0521 42.0357 48.2113 41.9132C48.25 41.8836 48.2825 41.8467 48.3069 41.8045C48.3313 41.7624 48.3472 41.7158 48.3536 41.6676C48.36 41.6193 48.3568 41.5702 48.3442 41.5232C48.3317 41.4761 48.31 41.432 48.2804 41.3933L48.2859 41.4011C48.4507 41.2875 48.6188 41.1818 48.7913 41.0816ZM47.2572 42.2594L50.223 45.5848L51.3987 46.5077C51.3463 46.5667 51.2985 46.628 51.2539 46.6948L50.0571 45.7975L46.0783 43.7935C45.9792 43.9661 45.8857 44.1442 45.8 44.3235C45.8882 44.3633 45.9575 44.4358 45.9932 44.5258C46.029 44.6157 46.0283 44.716 45.9914 44.8055C45.9157 44.9914 45.702 45.0816 45.5161 45.0092C45.4482 45.1985 45.3903 45.3889 45.3379 45.5826L49.5684 46.9786L51.0502 47.1924C51.0335 47.2681 51.0235 47.346 51.0179 47.4251L49.5339 47.2469L45.0852 47.5008C45.0852 47.7023 45.0964 47.9027 45.1097 48.0997L45.0997 48.1019C45.3023 48.0741 45.4894 48.2166 45.5161 48.4215C45.5417 48.6207 45.4025 48.8055 45.2055 48.8356C45.2778 49.2342 45.3814 49.6182 45.5161 49.9923C45.702 49.921 45.9157 50.0112 45.9914 50.196C46.0671 50.3819 45.9825 50.5968 45.8 50.6781C45.8857 50.8595 45.9792 51.0354 46.0783 51.208L50.0571 49.2041L51.2539 48.3079C51.2985 48.3736 51.3463 48.437 51.3987 48.4949L50.223 49.419L47.2561 52.7443H47.2572C47.3986 52.8846 47.5467 53.0204 47.6981 53.1518C47.8239 52.9959 48.0521 52.9659 48.2113 53.0894C48.3739 53.2141 48.405 53.4479 48.2804 53.6093L48.2859 53.6027C48.4496 53.7173 48.6188 53.8231 48.7913 53.9233L51.2361 50.196L51.825 48.8211C51.8941 48.8579 51.9664 48.8879 52.0421 48.9124L51.4866 50.3007L50.5804 54.6636C50.773 54.7148 50.9689 54.7594 51.166 54.7961C51.1805 54.7003 51.2319 54.6139 51.3094 54.5557C51.3868 54.4974 51.484 54.4718 51.5801 54.4844C51.7794 54.5122 51.9208 54.6926 51.8996 54.8907C52.0967 54.9074 52.296 54.9163 52.4986 54.9163L52.7546 50.4666L52.5765 48.9814C52.6555 48.9781 52.7335 48.967 52.8092 48.9514L53.0207 50.432L54.419 54.6636L53.5128 50.3007L52.955 48.9124C53.0318 48.8879 53.1053 48.8567 53.1743 48.8211L53.7633 50.196L56.2069 53.9233C56.3795 53.8231 56.5509 53.7151 56.7146 53.6027L56.7201 53.6093C56.5943 53.4479 56.6266 53.2141 56.788 53.0894C56.9472 52.9659 57.1766 52.9959 57.3002 53.1518C57.4527 53.0226 57.6007 52.8846 57.7421 52.7443L54.7763 49.419L53.6007 48.4949C53.6542 48.437 53.7009 48.3736 53.7432 48.3079L54.9411 49.2041L58.9222 51.208L55.1949 48.7632L53.8189 48.1754C53.8568 48.1053 53.8868 48.0329 53.9113 47.9572L55.2985 48.515L59.6603 49.4201C59.7115 49.2286 59.7572 49.0349 59.7939 48.8356C59.6985 48.8206 59.6127 48.7689 59.5549 48.6915C59.4971 48.6141 59.4718 48.5172 59.4844 48.4215C59.4906 48.3732 59.5062 48.3265 59.5304 48.2843C59.5547 48.2421 59.587 48.205 59.6256 48.1753C59.6642 48.1456 59.7083 48.1239 59.7553 48.1113C59.8023 48.0987 59.8514 48.0955 59.8997 48.1019L59.8896 48.0997C59.9052 47.9027 59.9141 47.7034 59.9141 47.5008L55.4666 47.7546L53.9803 47.5765C53.9759 47.6577 53.9659 47.7357 53.9503 47.8114L55.431 48.0229L59.6603 49.4201C59.608 49.6149 59.5512 49.8053 59.4844 49.9923C59.2952 49.921 59.0836 50.0112 59.0079 50.196C58.93 50.3853 59.0168 50.5979 59.2005 50.6781C59.0299 51.0401 58.8291 51.3872 58.6005 51.7157L58.6083 51.7212C58.5695 51.6915 58.5253 51.6697 58.4782 51.6571C58.431 51.6445 58.3818 51.6413 58.3334 51.6477C58.285 51.6541 58.2384 51.67 58.1961 51.6944C58.1539 51.7189 58.1169 51.7515 58.0872 51.7902C57.9648 51.9483 57.9948 52.1777 58.1496 52.3012C58.0193 52.454 57.8834 52.6018 57.7421 52.7443L54.4168 49.7785L53.4938 48.6029C53.4348 48.6541 53.3714 48.7031 53.3068 48.7454L54.2019 49.9422L56.2069 53.9233C56.0344 54.0224 55.8573 54.1159 55.6759 54.2016C55.5968 54.019 55.3831 53.9322 55.1949 54.0101C55.0057 54.0869 54.9166 54.304 54.9957 54.4933L54.9923 54.4855C54.6153 54.621 54.2277 54.7249 53.8334 54.7961C53.8189 54.7003 53.7674 54.6139 53.69 54.5557C53.6126 54.4974 53.5154 54.4718 53.4193 54.4844C53.22 54.5122 53.0786 54.6926 53.0997 54.8907C52.9027 54.9052 52.7001 54.9163 52.4986 54.9163L52.2447 50.4666L52.4229 48.9814C52.3438 48.9781 52.2659 48.967 52.1902 48.9514L51.9776 50.432L50.5804 54.6636C50.3856 54.6124 50.193 54.5523 50.0082 54.4855C50.0437 54.3953 50.0421 54.2947 50.0037 54.2056C49.9653 54.1166 49.8933 54.0463 49.8033 54.0101C49.6163 53.9322 49.4025 54.019 49.3224 54.2016C49.1416 54.1162 48.9645 54.0233 48.7913 53.9233L50.7964 49.9422L51.6937 48.7454C51.6269 48.7031 51.5645 48.6541 51.5066 48.6029L50.5826 49.7785L47.2561 52.7443V52.7421C47.1147 52.6007 46.9789 52.4526 46.8498 52.3012C47.0056 52.1777 47.0335 51.9483 46.9121 51.7902C46.8826 51.7515 46.8457 51.7189 46.8035 51.6945C46.7614 51.67 46.7148 51.6541 46.6665 51.6477C46.6182 51.6413 46.5691 51.6445 46.522 51.6571C46.475 51.6697 46.4309 51.6915 46.3922 51.7212L46.3989 51.7157C46.2865 51.552 46.1785 51.3817 46.0783 51.208L49.8033 48.7632L51.1782 48.1754C51.1437 48.1053 51.1137 48.0329 51.088 47.9572L49.7009 48.515L45.3379 49.4201L49.5684 48.0229L51.0502 47.8114C51.0335 47.7357 51.0235 47.6577 51.0179 47.5765L49.5339 47.7546L45.0852 47.5008C45.0852 47.2982 45.0941 47.1 45.1097 46.9029L45.0997 46.9007C45.3023 46.9274 45.4894 46.7849 45.5161 46.5823C45.5417 46.383 45.4025 46.1982 45.2055 46.1682C45.2422 45.97 45.2867 45.7752 45.3379 45.5826L49.7009 46.4888L51.088 47.0443C51.1137 46.9686 51.1437 46.8963 51.1782 46.8272L49.8033 46.2383L46.0783 43.7935C46.1785 43.6199 46.2842 43.4507 46.3989 43.287L46.3922 43.2814C46.5537 43.4072 46.7863 43.375 46.9121 43.2135C47.0335 43.0543 47.0056 42.825 46.8498 42.7003C46.9812 42.5489 47.117 42.4008 47.2572 42.2594Z" fill="#000088"/>
<defs>
<filter id="filter0_d_260_241" x="0" y="0" width="104" height="104" filterUnits="userSpaceOnUse" color-interpolation-filters="sRGB">
<feFlood flood-opacity="0" result="BackgroundImageFix"/>
<feColorMatrix in="SourceAlpha" type="matrix" values="0 0 0 0 0 0 0 0 0 0 0 0 0 0 0 0 0 0 127 0" result="hardAlpha"/>
<feOffset dy="4"/>
<feGaussianBlur stdDeviation="2"/>
<feComposite in2="hardAlpha" operator="out"/>
<feColorMatrix type="matrix" values="0 0 0 0 0 0 0 0 0 0 0 0 0 0 0 0 0 0 0.25 0"/>
<feBlend mode="normal" in2="BackgroundImageFix" result="effect1_dropShadow_260_241"/>
<feBlend mode="normal" in="SourceGraphic" in2="effect1_dropShadow_260_241" result="shape"/>
</filter>
</defs>
</svg>
