<svg width="85" height="93" viewBox="0 0 85 93" fill="none" xmlns="http://www.w3.org/2000/svg">
<path fill-rule="evenodd" clip-rule="evenodd" d="M66.3145 6.58197C66.3145 3.08416 64.3411 0.741378 61.3297 0.325195C65.73 3.58451 64.2476 9.04165 59.7023 13.7506C55.433 18.179 48.4748 22.0555 41.9234 24.6275C39.5432 25.5627 28.9048 28.6069 20.6466 28.663C-6.08259 28.8548 21.8297 5.56255 28.4185 3.00466C17.3593 5.26795 -5.50741 24.0757 15.2035 31.1695C23.0315 33.8536 34.4929 32.0206 44.5795 27.7792C56.284 22.8599 66.1321 14.6905 66.3145 6.57729V6.58197Z" fill="#1C1C1C"/>
<path fill-rule="evenodd" clip-rule="evenodd" d="M2.1145 35.7241C2.69903 65.4788 71.7012 34.6111 76.1623 19.825C58.9772 32.7173 18.2334 51.02 2.1145 35.7241Z" fill="#F89C2D"/>
<path fill-rule="evenodd" clip-rule="evenodd" d="M0.248833 46.5869C-2.55689 67.382 18.7807 71.9928 43.2372 62.9677C41.5725 61.2141 40.5484 58.8433 40.5484 56.2339C40.5484 55.9066 40.5625 55.5839 40.5952 55.266C21.2637 61.4386 4.76138 59.7785 0.248833 46.5869Z" fill="#1C1C1C"/>
<path fill-rule="evenodd" clip-rule="evenodd" d="M59.9969 54.8217C71.9493 46.5308 76.1626 43.6268 83.1302 31.2957C70.7242 41.2794 63.462 45.3243 56.5459 48.6912C58.3743 50.2016 59.6416 52.3667 59.9969 54.8217Z" fill="#1C1C1C"/>
<path fill-rule="evenodd" clip-rule="evenodd" d="M25.5005 11.7024C44.1445 -4.51942 66.6324 4.9312 44.1025 17.6131C73.7356 11.3236 48.3765 -14.9146 25.5005 11.7024Z" fill="#F89C2D"/>
<path fill-rule="evenodd" clip-rule="evenodd" d="M9.00757 69.1309C34.4368 98.6752 71.1918 71.4643 83.5277 49.4207C57.8599 71.6514 33.7494 82.9444 9.00757 69.1309Z" fill="#F89C2D"/>
<path fill-rule="evenodd" clip-rule="evenodd" d="M84.1495 65.376C69.9946 81.9859 50.1207 92.3998 24.8972 87.7283C52.6552 101.995 78.1546 84.8664 84.1495 65.376Z" fill="#1C1C1C"/>
<path d="M55.1572 60.7556C57.656 58.0854 57.5169 53.8952 54.8468 51.3965C52.1766 48.8978 47.9864 49.0368 45.4877 51.707C42.989 54.3771 43.128 58.5673 45.7982 61.0661C48.4683 63.5648 52.6585 63.4258 55.1572 60.7556Z" fill="#F89C2D"/>
</svg>
