<svg width="447" height="106" viewBox="0 0 447 106" fill="none" xmlns="http://www.w3.org/2000/svg">
<path fill-rule="evenodd" clip-rule="evenodd" d="M76.056 7.50198C76.056 3.51523 73.8068 0.844964 70.3743 0.370605C75.3898 4.08553 73.7002 10.3055 68.5196 15.6727C63.6534 20.7201 55.7225 25.1385 48.2554 28.07C45.5425 29.1359 33.417 32.6057 24.0045 32.6696C-6.4611 32.8882 25.3529 6.34006 32.8627 3.42462C20.2576 6.00428 -5.80553 27.441 17.8005 35.5265C26.7227 38.5858 39.7862 36.4965 51.2827 31.6623C64.6234 26.0553 75.8481 16.744 76.056 7.49665V7.50198Z" fill="white"/>
<path fill-rule="evenodd" clip-rule="evenodd" d="M2.88184 40.7178C3.54807 74.6317 82.1957 39.4492 87.2804 22.5962C67.6931 37.2906 21.2539 58.1518 2.88184 40.7178Z" fill="#F89C2D"/>
<path fill-rule="evenodd" clip-rule="evenodd" d="M0.755295 53.0989C-2.44263 76.8008 21.8776 82.0561 49.7528 71.7694C47.8554 69.7707 46.6881 67.0685 46.6881 64.0944C46.6881 63.7213 46.7041 63.3535 46.7414 62.9911C24.7077 70.0266 5.89862 68.1344 0.755295 53.0989Z" fill="white"/>
<path fill-rule="evenodd" clip-rule="evenodd" d="M68.8548 62.4852C82.478 53.0354 87.2802 49.7255 95.2217 35.6707C81.0816 47.0499 72.8043 51.6603 64.9214 55.4978C67.0054 57.2193 68.4498 59.6871 68.8548 62.4852Z" fill="white"/>
<path fill-rule="evenodd" clip-rule="evenodd" d="M29.5366 13.3382C50.7868 -5.15116 76.4182 5.62051 50.7389 20.0751C84.5143 12.9064 55.6104 -16.9995 29.5366 13.3382Z" fill="#F89C2D"/>
<path fill-rule="evenodd" clip-rule="evenodd" d="M10.7373 78.7945C39.7212 112.469 81.614 81.4541 95.6742 56.3291C66.4185 81.6673 38.9377 94.539 10.7373 78.7945Z" fill="#F89C2D"/>
<path fill-rule="evenodd" clip-rule="evenodd" d="M96.3839 74.5146C80.2504 93.4464 57.5985 105.316 28.8491 99.9914C60.4872 116.253 89.551 96.7296 96.3839 74.5146Z" fill="white"/>
<path d="M63.3386 69.2479C66.1866 66.2045 66.0281 61.4286 62.9847 58.5806C59.9413 55.7326 55.1654 55.891 52.3174 58.9345C49.4694 61.9779 49.6278 66.7538 52.6713 69.6018C55.7147 72.4498 60.4906 72.2914 63.3386 69.2479Z" fill="#F89C2D"/>
<path d="M126.251 60.0388H119.978V22.0261H126.251V60.0334V60.0388Z" fill="white"/>
<path d="M142.785 60.039H136.586V36.9393C136.586 27.3455 143.376 21.0723 152.453 21.0723C161.53 21.0723 168.245 27.3455 168.245 36.9393V60.039H162.047V36.7154C162.047 31.0338 158.284 26.8978 152.453 26.8978C146.622 26.8978 142.785 31.0285 142.785 36.7154V60.039Z" fill="white"/>
<path d="M192.012 60.0387C183.153 61.0727 177.029 55.8335 177.029 46.1651V13.9087H183.228V22.0261H191.862V28.0062H183.228V46.1597C183.228 52.8754 187.289 54.5756 192.012 54.2771V60.0334V60.0387Z" fill="white"/>
<path d="M233.856 48.2279C230.904 56.3453 224.556 60.9237 215.772 60.9237C204.851 60.9237 196.286 52.2147 196.286 41.0699C196.286 29.9251 204.846 21.0669 215.399 21.0669C223.666 21.0669 231.708 26.8232 233.926 36.7154L204.771 49.0434C207.207 52.8809 211.412 55.0235 215.767 55.0235C221.155 55.0235 224.918 52.6624 227.354 48.2333H233.851L233.856 48.2279ZM202.783 43.5803L226.251 33.688C223.89 29.5574 219.684 26.9724 215.404 26.9724C209.355 26.9724 202.565 32.2863 202.565 40.9953C202.565 41.9547 202.639 42.7648 202.789 43.5803H202.783Z" fill="white"/>
<path d="M241.089 5.12524H247.287V45.9414C247.287 52.657 251.418 54.3573 256.146 54.1334V60.0389C247.218 61.0729 241.089 55.8336 241.089 46.1653V5.12524Z" fill="white"/>
<path d="M296.659 48.2279C293.706 56.3453 287.358 60.9237 278.574 60.9237C267.654 60.9237 259.088 52.2147 259.088 41.0699C259.088 29.9251 267.648 21.0669 278.201 21.0669C286.468 21.0669 294.511 26.8232 296.728 36.7154L267.574 49.0434C270.009 52.8809 274.215 55.0235 278.569 55.0235C283.958 55.0235 287.72 52.6624 290.156 48.2333H296.653L296.659 48.2279ZM265.585 43.5803L289.053 33.688C286.692 29.5574 282.487 26.9724 278.201 26.9724C272.152 26.9724 265.362 32.2863 265.362 40.9953C265.362 41.9547 265.436 42.7648 265.585 43.5803Z" fill="white"/>
<path d="M340.13 58.2641C340.13 70.4428 332.305 78.7095 320.569 78.7095C311.636 78.7095 304.627 73.9126 302.634 66.1629H309.275C311.785 71.8446 317.835 72.6601 320.569 72.6601C330.387 72.6601 333.926 65.1343 333.926 58.2694V54.6504C330.973 58.5625 326.4 60.9983 320.937 60.9983C310.458 60.9983 301.968 52.4385 301.968 41.0699C301.968 29.7013 310.528 21.0669 321.081 21.0669C331.634 21.0669 340.124 29.8505 340.124 41.0699V58.2641H340.13ZM321.086 26.8232C314.003 26.8232 308.246 33.0964 308.246 41.0699C308.246 49.0434 314.003 55.1674 321.086 55.1674C328.169 55.1674 333.926 48.8942 333.926 41.0699C333.926 33.2457 328.02 26.8232 321.086 26.8232Z" fill="white"/>
<path d="M385.15 60.0389H379.101V54.1334C376.148 58.2641 371.351 60.9983 365.963 60.9983C355.484 60.9983 346.994 52.4385 346.994 41.0699C346.994 29.7013 355.553 21.0669 366.107 21.0669C376.66 21.0669 385.15 29.8505 385.15 41.0699V60.0389ZM366.107 26.8285C359.023 26.8285 353.267 33.1017 353.267 41.0752C353.267 49.0487 359.023 55.1727 366.107 55.1727C373.19 55.1727 378.946 48.8995 378.946 41.0752C378.946 33.251 373.041 26.8285 366.107 26.8285Z" fill="white"/>
<path d="M401.012 60.0388H394.739V22.0261H401.012V60.0334V60.0388Z" fill="white"/>
<path d="M417.545 60.039H411.346V36.9393C411.346 27.3455 418.136 21.0723 427.213 21.0723C436.29 21.0723 443.006 27.3455 443.006 36.9393V60.039H436.807V36.7154C436.807 31.0338 433.044 26.8978 427.213 26.8978C421.382 26.8978 417.545 31.0285 417.545 36.7154V60.039Z" fill="white"/>
<path d="M134.291 84.7958H128.529V99.3197H125.155V84.7958H119.426V82.3228H134.285V84.7958H134.291Z" fill="#F89C2D"/>
<path d="M160.929 92.0816H149.928V94.9438C149.928 96.207 150.909 96.8412 152.875 96.8412H161.584V99.3143H151.959C150.296 99.3143 149.006 99.0265 148.079 98.4508C147.061 97.8059 146.554 96.8945 146.554 95.7219V86.1815C146.554 85.0089 147.007 84.0815 147.908 83.4099C148.814 82.7384 150.061 82.4026 151.655 82.4026H161.584V84.8756H152.838C150.893 84.8756 149.923 85.4992 149.923 86.7411V89.6405H160.924V92.0816H160.929Z" fill="#F89C2D"/>
<path d="M191.348 84.8278H182.468C181.498 84.8278 180.8 84.9557 180.384 85.2169C179.878 85.5687 179.622 86.0537 179.622 86.6719V94.6881C179.622 95.4929 179.846 96.0472 180.299 96.367C180.752 96.6814 181.53 96.8413 182.639 96.8413H191.316V99.3144H181.386C179.75 99.3144 178.481 98.9786 177.591 98.307C176.701 97.6355 176.253 96.6974 176.253 95.5035V86.1336C176.253 84.7319 176.728 83.7352 177.677 83.1329C178.492 82.6159 179.819 82.3547 181.658 82.3547H191.353V84.8278H191.348Z" fill="#F89C2D"/>
<path d="M222.293 99.3198H218.935V92.0819H208.803V99.3198H205.429V82.3708H208.803V89.6408H218.935V82.3708H222.293V99.3198Z" fill="#F89C2D"/>
<path d="M252.901 97.2838C252.901 97.9287 252.672 98.4617 252.208 98.8774C251.702 99.3518 251.014 99.5916 250.156 99.5916C249.357 99.5916 248.733 99.4104 248.291 99.048C248.099 98.8881 247.758 98.4297 247.273 97.6729L239.427 85.7233V99.3465H236.208V84.8385C236.208 83.1916 237.125 82.3655 238.953 82.3655C239.79 82.3655 240.419 82.5414 240.85 82.8931C241.09 83.085 241.437 83.5434 241.9 84.2682L249.677 96.1965V82.52H252.896V97.2785L252.901 97.2838Z" fill="#F89C2D"/>
<path d="M283.048 95.4717C283.048 98.0354 281.198 99.3199 277.505 99.3199H272.404C270.619 99.3199 269.286 99.0374 268.407 98.4724C267.346 97.7955 266.813 96.8042 266.813 95.509V86.2564C266.813 84.9665 267.357 83.9698 268.439 83.2556C269.297 82.6694 270.619 82.3762 272.404 82.3762H277.537C281.209 82.3762 283.042 83.6714 283.042 86.2564V95.477L283.048 95.4717ZM279.727 94.8641V86.9652C279.727 86.1764 279.498 85.6221 279.034 85.313C278.571 85.0038 277.809 84.8493 276.748 84.8493H273.204C272.116 84.8493 271.343 85.0038 270.88 85.313C270.416 85.6221 270.187 86.1764 270.187 86.9652V94.7948C270.187 95.493 270.443 96.0313 270.949 96.4044C271.365 96.6976 272.116 96.8468 273.204 96.8468H276.748C277.787 96.8468 278.544 96.7029 279.018 96.4044C279.493 96.1113 279.727 95.5943 279.727 94.8641Z" fill="#F89C2D"/>
<path d="M312.058 99.3197H303.093C301.127 99.3197 299.618 99.0159 298.568 98.4136C297.518 97.8114 296.991 96.7561 296.991 95.253V82.3547H300.365V94.6561C300.365 95.5249 300.642 96.1325 301.196 96.4682C301.612 96.7294 302.507 96.8573 303.872 96.8573H312.058V99.3144V99.3197Z" fill="#F89C2D"/>
<path d="M340.567 95.4717C340.567 98.0354 338.718 99.3199 335.024 99.3199H329.924C328.138 99.3199 326.806 99.0374 325.926 98.4724C324.866 97.7955 324.333 96.8042 324.333 95.509V86.2564C324.333 84.9665 324.876 83.9698 325.958 83.2556C326.816 82.6694 328.138 82.3762 329.924 82.3762H335.056C338.729 82.3762 340.562 83.6714 340.562 86.2564V95.477L340.567 95.4717ZM337.247 94.8641V86.9652C337.247 86.1764 337.018 85.6221 336.554 85.313C336.09 85.0038 335.328 84.8493 334.267 84.8493H330.723C329.636 84.8493 328.863 85.0038 328.399 85.313C327.936 85.6221 327.706 86.1764 327.706 86.9652V94.7948C327.706 95.493 327.962 96.0313 328.469 96.4044C328.884 96.6976 329.636 96.8468 330.723 96.8468H334.267C335.307 96.8468 336.064 96.7029 336.538 96.4044C337.012 96.1113 337.247 95.5943 337.247 94.8641Z" fill="#F89C2D"/>
<path d="M371.033 95.2159C371.033 96.527 370.601 97.5131 369.743 98.1793C368.816 98.9361 367.568 99.3146 365.996 99.3146H360.133C358.305 99.3146 356.914 98.9948 355.965 98.3498C355.32 97.9181 354.894 97.4011 354.675 96.7935C354.564 96.4418 354.505 95.8341 354.505 94.9654V86.3736C354.505 85.5848 354.595 84.9772 354.777 84.5615C355.038 84.0285 355.523 83.5594 356.232 83.1544C357.138 82.6374 358.433 82.3762 360.128 82.3762H369.807V84.8173H360.826C359.765 84.8173 359.025 84.9452 358.604 85.2064C358.119 85.4995 357.873 86.0219 357.873 86.7627V94.8641C357.873 95.6209 358.14 96.1646 358.668 96.4897C359.083 96.7402 359.781 96.8628 360.752 96.8628H365.122C366.828 96.8628 367.68 96.2286 367.68 94.9654V89.95H371.017V95.2212L371.033 95.2159Z" fill="#F89C2D"/>
<path d="M388.34 99.3197H384.966V82.3228H388.34V99.3197Z" fill="#F89C2D"/>
<path d="M416.604 92.0816H405.609V94.9438C405.609 96.207 406.589 96.8412 408.556 96.8412H417.265V99.3143H407.639C405.976 99.3143 404.687 99.0265 403.759 98.4508C402.741 97.8059 402.235 96.8945 402.235 95.7219V86.1815C402.235 85.0089 402.688 84.0815 403.589 83.4099C404.495 82.7384 405.742 82.4026 407.336 82.4026H417.265V84.8756H408.519C406.573 84.8756 405.603 85.4992 405.603 86.7411V89.6405H416.599V92.0816H416.604Z" fill="#F89C2D"/>
<path d="M446.365 84.8439H437.72C436.307 84.8439 435.428 85.1051 435.076 85.6221C434.874 85.9365 434.772 86.6561 434.772 87.7753C434.772 88.3616 435.039 88.82 435.566 89.1504C436.009 89.4116 436.723 89.5395 437.72 89.5395H441.296C442.82 89.5395 444.041 89.8433 444.958 90.4563C445.874 91.0692 446.333 91.9273 446.333 93.0306V95.7062C446.333 96.8681 445.864 97.7635 444.926 98.3818C443.988 99.0054 442.703 99.3145 441.078 99.3145H431.436V96.8415H440.081C441.515 96.8415 442.41 96.559 442.756 95.994C442.916 95.7009 442.996 94.9387 442.996 93.7075C442.996 92.5562 442.058 91.9806 440.182 91.9806H436.606C435.124 91.9806 433.909 91.6981 432.96 91.1332C431.921 90.5096 431.404 89.6675 431.404 88.5908V85.9472C431.404 84.7586 431.969 83.8152 433.099 83.117C433.888 82.6214 435.033 82.3708 436.536 82.3708H446.365V84.8439Z" fill="#F89C2D"/>
<path d="M120.203 16.2166V10.0979H126.471V16.2166H120.203Z" fill="#FF9933"/>
<path d="M394.745 16.2166V10.0979H401.013V16.2166H394.745Z" fill="#FF9933"/>
</svg>
