<svg width="296" height="71" viewBox="0 0 296 71" fill="none" xmlns="http://www.w3.org/2000/svg">
<path fill-rule="evenodd" clip-rule="evenodd" d="M50.0707 4.96955C50.0707 2.32852 48.5807 0.559601 46.3069 0.245361C49.6293 2.70632 48.5101 6.82674 45.0782 10.3822C41.8546 13.7259 36.6008 16.6529 31.6541 18.5948C29.857 19.301 21.8244 21.5995 15.5891 21.6419C-4.59286 21.7867 16.4824 4.19984 21.4572 2.2685C13.1069 3.9774 -4.15858 18.1782 11.4793 23.5344C17.3898 25.5611 26.0437 24.177 33.6596 20.9746C42.4972 17.2602 49.933 11.0919 50.0707 4.96602V4.96955Z" fill="#383838"/>
<path fill-rule="evenodd" clip-rule="evenodd" d="M1.59717 26.9739C2.03852 49.4402 54.1387 26.1336 57.5071 14.9692C44.5315 24.7036 13.7678 38.5231 1.59717 26.9739Z" fill="#F89C2D"/>
<path fill-rule="evenodd" clip-rule="evenodd" d="M0.187882 35.1753C-1.93059 50.8767 14.1804 54.358 32.6463 47.5436C31.3894 46.2196 30.6161 44.4295 30.6161 42.4593C30.6161 42.2121 30.6267 41.9685 30.6515 41.7284C16.0552 46.3891 3.59508 45.1356 0.187882 35.1753Z" fill="#383838"/>
<path fill-rule="evenodd" clip-rule="evenodd" d="M45.3005 41.3932C54.3252 35.1332 57.5065 32.9406 62.7673 23.6299C53.4002 31.1681 47.9168 34.2222 42.6948 36.7644C44.0754 37.9048 45.0322 39.5396 45.3005 41.3932Z" fill="#383838"/>
<path fill-rule="evenodd" clip-rule="evenodd" d="M19.2539 8.83588C33.3311 -3.41239 50.3107 3.72331 33.2994 13.2988C55.6739 8.54989 36.5265 -11.2613 19.2539 8.83588Z" fill="#F89C2D"/>
<path fill-rule="evenodd" clip-rule="evenodd" d="M6.80127 52.1974C26.0017 74.5049 53.7536 53.9593 63.0678 37.3152C43.6873 54.1005 25.4826 62.6274 6.80127 52.1974Z" fill="#F89C2D"/>
<path fill-rule="evenodd" clip-rule="evenodd" d="M63.5369 49.3623C52.8492 61.9036 37.8434 69.7667 18.7983 66.2394C39.7571 77.0118 59.0104 64.0786 63.5369 49.3623Z" fill="#383838"/>
<path d="M41.6468 45.8736C43.5334 43.8574 43.4285 40.6936 41.4124 38.807C39.3962 36.9203 36.2324 37.0253 34.3458 39.0414C32.4591 41.0575 32.5641 44.2213 34.5802 46.108C36.5963 47.9946 39.7601 47.8897 41.6468 45.8736Z" fill="#F89C2D"/>
<path d="M83.3232 39.7723H79.1675V14.5908H83.3232V39.7688V39.7723Z" fill="#383838"/>
<path d="M94.2762 39.7723H90.1699V24.4699C90.1699 18.1145 94.6681 13.9587 100.681 13.9587C106.694 13.9587 111.143 18.1145 111.143 24.4699V39.7723H107.036V24.3216C107.036 20.5578 104.544 17.8179 100.681 17.8179C96.8184 17.8179 94.2762 20.5542 94.2762 24.3216V39.7723Z" fill="#383838"/>
<path d="M126.887 39.7728C121.019 40.4577 116.962 36.987 116.962 30.5822V9.21387H121.068V14.5912H126.788V18.5528H121.068V30.5786C121.068 35.0274 123.759 36.1537 126.887 35.956V39.7692V39.7728Z" fill="#383838"/>
<path d="M154.607 31.9484C152.651 37.3258 148.446 40.3587 142.627 40.3587C135.392 40.3587 129.718 34.5894 129.718 27.2066C129.718 19.8237 135.389 13.9556 142.38 13.9556C147.856 13.9556 153.184 17.7688 154.653 24.3219L135.339 32.4886C136.953 35.0308 139.739 36.4502 142.623 36.4502C146.193 36.4502 148.686 34.886 150.299 31.952H154.603L154.607 31.9484ZM134.022 28.8696L149.568 22.3165C148.004 19.5801 145.218 17.8677 142.383 17.8677C138.376 17.8677 133.878 21.3879 133.878 27.1572C133.878 27.7927 133.927 28.3294 134.026 28.8696H134.022Z" fill="#383838"/>
<path d="M159.397 3.39502H163.504V30.4337C163.504 34.8825 166.24 36.0088 169.372 35.8605V39.7727C163.458 40.4576 159.397 36.9869 159.397 30.582V3.39502Z" fill="#383838"/>
<path d="M196.21 31.9484C194.254 37.3258 190.049 40.3587 184.23 40.3587C176.996 40.3587 171.322 34.5894 171.322 27.2066C171.322 19.8237 176.992 13.9556 183.983 13.9556C189.459 13.9556 194.787 17.7688 196.256 24.3219L176.943 32.4886C178.556 35.0308 181.342 36.4502 184.227 36.4502C187.796 36.4502 190.289 34.886 191.903 31.952H196.207L196.21 31.9484ZM175.626 28.8696L191.172 22.3165C189.608 19.5801 186.822 17.8677 183.983 17.8677C179.976 17.8677 175.478 21.3879 175.478 27.1572C175.478 27.7927 175.527 28.3294 175.626 28.8696Z" fill="#383838"/>
<path d="M225.007 38.5969C225.007 46.6647 219.824 52.141 212.049 52.141C206.131 52.141 201.488 48.9633 200.168 43.8295H204.567C206.23 47.5933 210.238 48.1335 212.049 48.1335C218.553 48.1335 220.897 43.1481 220.897 38.6004V36.203C218.941 38.7946 215.912 40.4082 212.293 40.4082C205.351 40.4082 199.727 34.7377 199.727 27.2066C199.727 19.6754 205.397 13.9556 212.388 13.9556C219.379 13.9556 225.003 19.7743 225.003 27.2066V38.5969H225.007ZM212.391 17.7688C207.699 17.7688 203.886 21.9245 203.886 27.2066C203.886 32.4886 207.699 36.5455 212.391 36.5455C217.084 36.5455 220.897 32.3898 220.897 27.2066C220.897 22.0234 216.985 17.7688 212.391 17.7688Z" fill="#383838"/>
<path d="M254.831 39.7726H250.824V35.8605C248.868 38.5969 245.69 40.4082 242.12 40.4082C235.179 40.4082 229.554 34.7377 229.554 27.2066C229.554 19.6754 235.225 13.9556 242.216 13.9556C249.207 13.9556 254.831 19.7743 254.831 27.2066V39.7726ZM242.216 17.7723C237.523 17.7723 233.71 21.9281 233.71 27.2101C233.71 32.4922 237.523 36.549 242.216 36.549C246.908 36.549 250.721 32.3933 250.721 27.2101C250.721 22.0269 246.809 17.7723 242.216 17.7723Z" fill="#383838"/>
<path d="M265.339 39.7723H261.183V14.5908H265.339V39.7688V39.7723Z" fill="#383838"/>
<path d="M276.292 39.7723H272.186V24.4699C272.186 18.1145 276.684 13.9587 282.697 13.9587C288.71 13.9587 293.158 18.1145 293.158 24.4699V39.7723H289.052V24.3216C289.052 20.5578 286.559 17.8179 282.697 17.8179C278.834 17.8179 276.292 20.5542 276.292 24.3216V39.7723Z" fill="#383838"/>
<path d="M88.6481 56.1732H84.8314V65.7946H82.5964V56.1732H78.8008V54.5349H88.6446V56.1732H88.6481Z" fill="#F89C2D"/>
<path d="M106.294 60.9998H99.007V62.8958C99.007 63.7326 99.6566 64.1528 100.959 64.1528H106.729V65.7911H100.352C99.2506 65.7911 98.3961 65.6004 97.7818 65.2191C97.1074 64.7918 96.772 64.1881 96.772 63.4113V57.0912C96.772 56.3144 97.0721 55.7001 97.6688 55.2552C98.269 54.8103 99.0952 54.5879 100.151 54.5879H106.729V56.2262H100.935C99.646 56.2262 99.0034 56.6393 99.0034 57.4619V59.3827H106.291V60.9998H106.294Z" fill="#F89C2D"/>
<path d="M126.445 56.1942H120.563C119.92 56.1942 119.458 56.2789 119.182 56.4519C118.847 56.685 118.677 57.0063 118.677 57.4158V62.7261C118.677 63.2593 118.826 63.6265 119.126 63.8383C119.426 64.0466 119.941 64.1526 120.676 64.1526H126.424V65.7909H119.846C118.762 65.7909 117.922 65.5684 117.332 65.1235C116.742 64.6787 116.446 64.0572 116.446 63.2663V57.0592C116.446 56.1306 116.76 55.4704 117.389 55.0714C117.929 54.7289 118.808 54.5559 120.026 54.5559H126.449V56.1942H126.445Z" fill="#F89C2D"/>
<path d="M146.945 65.7945H144.72V60.9997H138.008V65.7945H135.773V54.5667H138.008V59.3826H144.72V54.5667H146.945V65.7945Z" fill="#F89C2D"/>
<path d="M167.222 64.4456C167.222 64.8729 167.07 65.2259 166.763 65.5013C166.428 65.8156 165.972 65.9745 165.404 65.9745C164.874 65.9745 164.461 65.8544 164.168 65.6143C164.041 65.5084 163.815 65.2048 163.493 64.7034L158.296 56.7874V65.8121H156.164V56.2013C156.164 55.1103 156.771 54.563 157.982 54.563C158.536 54.563 158.953 54.6795 159.239 54.9125C159.398 55.0396 159.627 55.3433 159.934 55.8235L165.086 63.7254V54.6654H167.218V64.4421L167.222 64.4456Z" fill="#F89C2D"/>
<path d="M187.192 63.2452C187.192 64.9435 185.967 65.7944 183.52 65.7944H180.141C178.958 65.7944 178.076 65.6073 177.493 65.233C176.791 64.7846 176.438 64.1279 176.438 63.2699V57.1405C176.438 56.286 176.798 55.6258 177.514 55.1526C178.083 54.7643 178.958 54.5701 180.141 54.5701H183.541C185.974 54.5701 187.189 55.428 187.189 57.1405V63.2487L187.192 63.2452ZM184.993 62.8427V57.6101C184.993 57.0875 184.841 56.7203 184.534 56.5155C184.226 56.3107 183.721 56.2084 183.019 56.2084H180.671C179.951 56.2084 179.439 56.3107 179.131 56.5155C178.824 56.7203 178.672 57.0875 178.672 57.6101V62.7968C178.672 63.2593 178.842 63.6159 179.177 63.8631C179.453 64.0573 179.951 64.1561 180.671 64.1561H183.019C183.707 64.1561 184.209 64.0608 184.523 63.8631C184.837 63.6689 184.993 63.3264 184.993 62.8427Z" fill="#F89C2D"/>
<path d="M206.41 65.7944H200.471C199.169 65.7944 198.169 65.5931 197.474 65.1942C196.778 64.7952 196.429 64.0961 196.429 63.1004V54.5559H198.664V62.705C198.664 63.2805 198.847 63.683 199.214 63.9054C199.49 64.0784 200.083 64.1632 200.987 64.1632H206.41V65.7909V65.7944Z" fill="#F89C2D"/>
<path d="M225.296 63.2452C225.296 64.9435 224.071 65.7944 221.624 65.7944H218.245C217.062 65.7944 216.18 65.6073 215.597 65.233C214.895 64.7846 214.542 64.1279 214.542 63.2699V57.1405C214.542 56.286 214.902 55.6258 215.618 55.1526C216.187 54.7643 217.062 54.5701 218.245 54.5701H221.645C224.078 54.5701 225.293 55.428 225.293 57.1405V63.2487L225.296 63.2452ZM223.097 62.8427V57.6101C223.097 57.0875 222.945 56.7203 222.638 56.5155C222.33 56.3107 221.826 56.2084 221.123 56.2084H218.775C218.055 56.2084 217.543 56.3107 217.235 56.5155C216.928 56.7203 216.776 57.0875 216.776 57.6101V62.7968C216.776 63.2593 216.946 63.6159 217.281 63.8631C217.557 64.0573 218.055 64.1561 218.775 64.1561H221.123C221.811 64.1561 222.313 64.0608 222.627 63.8631C222.941 63.6689 223.097 63.3264 223.097 62.8427Z" fill="#F89C2D"/>
<path d="M245.478 63.0757C245.478 63.9443 245.192 64.5975 244.624 65.0388C244.009 65.5402 243.183 65.7909 242.142 65.7909H238.258C237.047 65.7909 236.125 65.579 235.497 65.1518C235.07 64.8658 234.787 64.5233 234.642 64.1208C234.568 63.8878 234.529 63.4853 234.529 62.9098V57.2182C234.529 56.6956 234.589 56.2931 234.709 56.0177C234.882 55.6646 235.204 55.3539 235.673 55.0856C236.273 54.7431 237.131 54.5701 238.254 54.5701H244.666V56.1872H238.717C238.014 56.1872 237.523 56.2719 237.244 56.4449C236.923 56.6391 236.761 56.9851 236.761 57.4759V62.8427C236.761 63.3441 236.937 63.7042 237.287 63.9196C237.562 64.0855 238.025 64.1667 238.667 64.1667H241.563C242.692 64.1667 243.257 63.7466 243.257 62.9098V59.5873H245.468V63.0792L245.478 63.0757Z" fill="#F89C2D"/>
<path d="M256.943 65.7946H254.708V54.5349H256.943V65.7946Z" fill="#F89C2D"/>
<path d="M275.666 60.9998H268.382V62.8958C268.382 63.7326 269.032 64.1528 270.334 64.1528H276.104V65.7911H269.727C268.626 65.7911 267.771 65.6004 267.157 65.2191C266.482 64.7918 266.147 64.1881 266.147 63.4113V57.0912C266.147 56.3144 266.447 55.7001 267.044 55.2552C267.644 54.8103 268.47 54.5879 269.526 54.5879H276.104V56.2262H270.31C269.021 56.2262 268.378 56.6393 268.378 57.4619V59.3827H275.662V60.9998H275.666Z" fill="#F89C2D"/>
<path d="M295.382 56.2049H289.655C288.72 56.2049 288.137 56.3779 287.904 56.7204C287.77 56.9287 287.703 57.4054 287.703 58.1469C287.703 58.5352 287.879 58.8389 288.229 59.0578C288.522 59.2308 288.995 59.3156 289.655 59.3156H292.024C293.034 59.3156 293.843 59.5168 294.45 59.9228C295.057 60.3289 295.361 60.8973 295.361 61.6282V63.4007C295.361 64.1704 295.05 64.7635 294.429 65.1731C293.807 65.5862 292.956 65.791 291.88 65.791H285.492V64.1527H291.219C292.169 64.1527 292.762 63.9656 292.992 63.5913C293.098 63.3971 293.151 62.8922 293.151 62.0766C293.151 61.314 292.529 60.9327 291.286 60.9327H288.917C287.936 60.9327 287.131 60.7455 286.502 60.3713C285.814 59.9582 285.471 59.4003 285.471 58.6871V56.9358C285.471 56.1484 285.845 55.5235 286.594 55.061C287.117 54.7326 287.876 54.5667 288.871 54.5667H295.382V56.2049Z" fill="#F89C2D"/>
<path d="M79.3164 10.7423V6.68896H83.4686V10.7423H79.3164Z" fill="#FF9933"/>
<path d="M261.186 10.7423V6.68896H265.338V10.7423H261.186Z" fill="#FF9933"/>
</svg>
