<svg width="24" height="27" viewBox="0 0 24 27" fill="none" xmlns="http://www.w3.org/2000/svg">
<path fill-rule="evenodd" clip-rule="evenodd" d="M18.9134 2.35102C18.9134 1.35334 18.3505 0.685114 17.4916 0.566406C18.7467 1.49606 18.3239 3.05259 17.0274 4.39572C15.8097 5.65882 13.825 6.76454 11.9563 7.49812C11.2774 7.76488 8.24307 8.63318 5.88759 8.64919C-1.73636 8.70387 6.22504 2.06025 8.10435 1.33067C4.94994 1.97623 -1.57231 7.34073 4.33506 9.3641C6.56783 10.1297 9.83695 9.60685 12.7139 8.3971C16.0524 6.99395 18.8614 4.66381 18.9134 2.34969V2.35102Z" fill="white"/>
<path fill-rule="evenodd" clip-rule="evenodd" d="M0.601807 10.6649C0.768531 19.1518 20.45 10.3475 21.7224 6.13C16.8207 9.80727 5.19939 15.0264 0.601807 10.6649Z" fill="#F89C2D"/>
<path fill-rule="evenodd" clip-rule="evenodd" d="M0.0709744 13.7618C-0.729301 19.6932 5.35679 21.0083 12.3325 18.4341C11.8577 17.9339 11.5656 17.2577 11.5656 16.5135C11.5656 16.4201 11.5696 16.3281 11.5789 16.2374C6.06504 17.9993 1.35808 17.5258 0.0709744 13.7632V13.7618Z" fill="white"/>
<path fill-rule="evenodd" clip-rule="evenodd" d="M17.1115 16.1103C20.5207 13.7455 21.7225 12.9172 23.7098 9.40002C20.1713 12.2477 18.0999 13.4014 16.1272 14.3617C16.6487 14.7925 17.0102 15.4101 17.1115 16.1103Z" fill="white"/>
<path fill-rule="evenodd" clip-rule="evenodd" d="M7.27222 3.81173C12.59 -0.815194 19.0043 1.8804 12.578 5.49765C21.0303 3.7037 13.7971 -3.78021 7.27222 3.81173Z" fill="#F89C2D"/>
<path fill-rule="evenodd" clip-rule="evenodd" d="M2.56909 20.1933C9.82225 28.6202 20.3059 20.8589 23.8244 14.5714C16.5032 20.9123 9.62618 24.1334 2.56909 20.1933Z" fill="#F89C2D"/>
<path fill-rule="evenodd" clip-rule="evenodd" d="M24.0006 19.1207C19.9632 23.8584 14.2946 26.8287 7.1001 25.4963C15.0175 29.5657 22.2907 24.68 24.0006 19.1207Z" fill="white"/>
<path d="M15.7301 17.8053C16.4429 17.0437 16.4032 15.8485 15.6416 15.1358C14.88 14.4231 13.6848 14.4628 12.9721 15.2244C12.2594 15.986 12.299 17.1812 13.0607 17.8939C13.8223 18.6066 15.0174 18.5669 15.7301 17.8053Z" fill="#F89C2D"/>
</svg>
