<svg width="104" height="104" viewBox="0 0 104 104" fill="none" xmlns="http://www.w3.org/2000/svg">
<g filter="url(#filter0_d_260_249)">
<circle cx="52" cy="48" r="48" fill="white"/>
</g>
<path d="M53 20C60.7306 20 67.7317 23.1347 72.798 28.202C77.8653 33.2683 81 40.2694 81 48C81 55.7306 77.8653 62.7317 72.798 67.798C67.7317 72.8653 60.7306 76 53 76C45.2694 76 38.2683 72.8653 33.202 67.798C28.1347 62.7317 25 55.7306 25 48C25 40.2694 28.1347 33.2683 33.202 28.202C38.2683 23.1347 45.2694 20 53 20Z" fill="#999999"/>
<path d="M53.0006 22.1306C60.1428 22.1306 66.6134 25.0269 71.2936 29.707L71.4128 29.8361C76.0219 34.5075 78.87 40.9234 78.87 47.9989C78.87 55.1422 75.9715 61.6117 71.2914 66.2919L71.1623 66.4111C66.4887 71.0223 60.0717 73.8694 53.0006 73.8694C45.8661 73.8694 39.3976 70.9698 34.7153 66.2864C30.0297 61.6117 27.1323 55.1422 27.1323 47.9989C27.1323 40.8556 30.0286 34.3872 34.7087 29.707C39.3889 25.0269 45.8584 22.1306 53.0006 22.1306Z" fill="white"/>
<path d="M52.9998 24.3301C66.0723 24.3301 76.6697 34.9274 76.6697 47.9988C76.6697 61.0713 66.0723 71.6698 52.9998 71.6698C39.9284 71.6698 29.3311 61.0713 29.3311 47.9988C29.3311 34.9274 39.9284 24.3301 52.9998 24.3301Z" fill="#FEFEFE"/>
<path d="M45.0696 39.6382V25.6929C40.5502 27.3007 36.6641 30.244 33.8838 34.0437L45.0696 39.6382ZM45.0696 56.3617V70.307C40.5524 68.6992 36.6674 65.7581 33.8849 61.9562L45.0696 56.3617ZM60.8797 56.3617V70.3256C65.4133 68.7254 69.3114 65.7821 72.1027 61.9759L60.8797 56.3617ZM60.8797 39.6382V25.6743C65.4133 27.2745 69.3136 30.2178 72.1038 34.0251L60.8797 39.6382Z" fill="#012169"/>
<path d="M74.0326 55.8924H68.7706L74.1682 58.5962C74.5193 57.8951 74.8365 57.1743 75.1187 56.436L74.0326 55.8924ZM73.0111 35.3562L63.5589 40.0954H68.8209L74.1748 37.4157C73.8215 36.7091 73.4322 36.0212 73.0111 35.3562ZM48.2321 52.7315V71.1885C49.7722 71.5024 51.3668 71.6698 52.9998 71.6698C54.6142 71.6698 56.1925 71.5068 57.7172 71.1995V52.7315H76.195C76.5045 51.2024 76.6697 49.6209 76.6697 47.9988C76.6697 46.3713 76.5045 44.781 76.1917 43.2443H57.7172V24.8015C56.1643 24.4876 54.584 24.3297 52.9998 24.3301C51.3668 24.3301 49.7722 24.4985 48.2321 24.8113V43.2443H29.809C29.4907 44.8091 29.3306 46.402 29.3311 47.9988C29.3311 49.6209 29.4962 51.2024 29.8057 52.7315H48.2321ZM31.9036 40.1074H37.1656L31.8182 37.4299C31.4682 38.131 31.15 38.854 30.8689 39.5912L31.9036 40.1074ZM42.3893 55.9045H37.1273L31.815 58.5634C32.1698 59.273 32.56 59.9644 32.9842 60.6349L42.4375 55.9045H42.3893Z" fill="#C8102E"/>
<defs>
<filter id="filter0_d_260_249" x="0" y="0" width="104" height="104" filterUnits="userSpaceOnUse" color-interpolation-filters="sRGB">
<feFlood flood-opacity="0" result="BackgroundImageFix"/>
<feColorMatrix in="SourceAlpha" type="matrix" values="0 0 0 0 0 0 0 0 0 0 0 0 0 0 0 0 0 0 127 0" result="hardAlpha"/>
<feOffset dy="4"/>
<feGaussianBlur stdDeviation="2"/>
<feComposite in2="hardAlpha" operator="out"/>
<feColorMatrix type="matrix" values="0 0 0 0 0 0 0 0 0 0 0 0 0 0 0 0 0 0 0.25 0"/>
<feBlend mode="normal" in2="BackgroundImageFix" result="effect1_dropShadow_260_249"/>
<feBlend mode="normal" in="SourceGraphic" in2="effect1_dropShadow_260_249" result="shape"/>
</filter>
</defs>
</svg>
