<svg width="37" height="30" viewBox="0 0 37 30" fill="none" xmlns="http://www.w3.org/2000/svg">
<path d="M3.32951 29.2789C2.60609 29.2789 1.9731 29.0077 1.43054 28.4651C0.88798 27.9225 0.616699 27.2895 0.616699 26.5661V3.0551C0.616699 2.33168 0.88798 1.69869 1.43054 1.15613C1.9731 0.613566 2.60609 0.342285 3.32951 0.342285H34.0747C34.7981 0.342285 35.4311 0.613566 35.9737 1.15613C36.5162 1.69869 36.7875 2.33168 36.7875 3.0551V26.5661C36.7875 27.2895 36.5162 27.9225 35.9737 28.4651C35.4311 29.0077 34.7981 29.2789 34.0747 29.2789H3.32951ZM18.7021 15.6245L3.32951 5.54184V26.5661H34.0747V5.54184L18.7021 15.6245ZM18.7021 12.9116L33.8938 3.0551H3.55558L18.7021 12.9116ZM3.32951 5.54184V3.0551V26.5661V5.54184Z" fill="white"/>
</svg>
