<svg width="38" height="39" viewBox="0 0 38 39" fill="none" xmlns="http://www.w3.org/2000/svg">
<g clip-path="url(#clip0_260_434)">
<path fill-rule="evenodd" clip-rule="evenodd" d="M16.7425 1.47894e-07C19.7616 -0.00040433 22.7247 0.828857 25.3181 2.40002C27.9115 3.97118 30.0388 6.22579 31.4748 8.92524C32.9108 11.6247 33.6021 14.6685 33.4756 17.7346C33.3491 20.8008 32.4094 23.7751 30.756 26.3428L38 34.3694L33.0041 39.0127L26.0161 31.186C23.8407 32.6575 21.3566 33.5909 18.7626 33.9116C16.1687 34.2323 13.5369 33.9314 11.0778 33.033C8.61875 32.1346 6.40073 30.6635 4.60122 28.7376C2.80171 26.8117 1.47068 24.4844 0.714629 21.9419C-0.0414172 19.3994 -0.201486 16.7124 0.247232 14.0957C0.69595 11.4791 1.741 9.00553 3.29875 6.873C4.85649 4.74046 6.8837 3.00816 9.21814 1.8147C11.5526 0.621239 14.1294 -0.00023732 16.7425 1.47894e-07ZM14.3632 20.23V19.8269C14.3456 19.0804 14.4169 18.3344 14.5755 17.6052C15.0158 15.9294 16.0181 15.6248 17.1984 14.6885C17.698 14.3013 18.1039 13.8188 18.1039 13.1523C18.1039 11.9431 16.7581 11.3972 15.7933 11.9495C15.5373 12.0872 15.324 12.2946 15.1773 12.5485C15.0306 12.8024 14.9563 13.0928 14.9627 13.3872H10.7256C10.7256 11.2068 11.6623 9.50562 13.7075 8.67725C15.6806 7.95633 17.8383 7.95073 19.815 8.66138C21.7041 9.37866 22.8094 10.7974 22.8094 12.8794C22.8283 13.4972 22.7165 14.112 22.4815 14.6821C21.651 16.5388 20.3583 16.6689 19.1062 17.8306C18.3287 18.5447 18.2881 19.2524 18.2881 20.23H14.3632ZM16.3834 25.8857C16.0785 25.8907 15.7758 25.8327 15.4935 25.7154C15.2112 25.5982 14.9553 25.424 14.741 25.2034C14.5203 24.9881 14.3461 24.7285 14.2295 24.4411C14.1128 24.1537 14.0563 23.8448 14.0635 23.5339C14.0592 23.2284 14.1175 22.9253 14.2347 22.6439C14.3519 22.3625 14.5254 22.109 14.7442 21.8994C15.1768 21.4643 15.7608 21.2202 16.3694 21.2202C16.978 21.2202 17.562 21.4643 17.9946 21.8994C18.2193 22.108 18.3987 22.3619 18.5213 22.645C18.6439 22.9281 18.707 23.2341 18.7065 23.5435C18.7032 23.963 18.5865 24.3736 18.3693 24.7305C18.1579 25.0795 17.8665 25.3714 17.52 25.5811C17.1786 25.7919 16.7861 25.9018 16.3866 25.8984L16.3834 25.8857ZM27.2589 6.32544C24.8222 3.85554 21.6185 2.32073 18.1935 1.98249C14.7684 1.64424 11.334 2.52349 8.47515 4.47044C5.61634 6.41739 3.51004 9.3116 2.51508 12.66C1.52013 16.0084 1.69806 19.6039 3.01857 22.8339C4.33908 26.0639 6.72048 28.7287 9.75708 30.3742C12.7937 32.0197 16.2976 32.5442 19.672 31.8583C23.0463 31.1724 26.0824 29.3186 28.2628 26.6126C30.4433 23.9066 31.6334 20.5159 31.6303 17.0181C31.6312 15.0308 31.2455 13.063 30.4953 11.2279C29.745 9.39285 28.6451 7.72671 27.2589 6.32544Z" fill="#FF7A00"/>
</g>
<defs>
<clipPath id="clip0_260_434">
<rect width="38" height="39" fill="white"/>
</clipPath>
</defs>
</svg>
