<svg width="104" height="104" viewBox="0 0 104 104" fill="none" xmlns="http://www.w3.org/2000/svg">
<g filter="url(#filter0_d_260_257)">
<circle cx="52" cy="48" r="48" fill="white"/>
</g>
<path d="M51.9626 20.0059C59.7039 20.0059 66.7139 23.1452 71.7872 28.2185C76.8607 33.292 80 40.3018 80 48.0432C80 55.7846 76.8607 62.7945 71.7872 67.8679C66.7139 72.9414 59.7039 76.0806 51.9626 76.0806C44.222 76.0806 37.2113 72.9414 32.1379 67.8679C27.0646 62.7945 23.9253 55.7837 23.9253 48.0432C23.9253 40.3018 27.0646 33.292 32.1379 28.2185C37.2113 23.1452 44.2213 20.0059 51.9626 20.0059Z" fill="#4D4D4D"/>
<path d="M51.9626 22.1519C59.1119 22.1519 65.5851 25.0505 70.2703 29.7354C74.9553 34.4207 77.8538 40.8938 77.8538 48.0431C77.8538 55.1925 74.9553 61.6657 70.27 66.3507C65.5851 71.0359 59.1119 73.9344 51.9626 73.9344C44.8133 73.9344 38.34 71.0359 33.6548 66.351C28.9699 61.6657 26.0713 55.1925 26.0713 48.0431C26.0713 40.8938 28.9699 34.4207 33.6548 29.7354C38.34 25.0505 44.8133 22.1519 51.9626 22.1519Z" fill="white"/>
<path d="M28.3261 49.7898H75.5995C75.6416 49.2129 75.6639 48.6306 75.6639 48.0431C75.6639 34.9532 65.0525 24.342 51.9628 24.342C38.8728 24.342 28.2617 34.9532 28.2617 48.0431C28.2617 48.6306 28.2841 49.2129 28.3261 49.7898Z" fill="#ED2939"/>
<path d="M48.705 46.8207C47.7426 47.1579 46.73 47.3296 45.7103 47.3286C40.715 47.3286 36.6714 43.285 36.6714 38.2897C36.6714 33.2945 40.715 29.2507 45.7103 29.2507C46.7575 29.2507 47.7638 29.4301 48.7001 29.7586C44.1496 29.9372 40.5017 33.6839 40.5017 38.2897C40.5017 42.8853 44.1408 46.6445 48.705 46.8207ZM54.6489 44.2237L53.422 43.285L52.1951 44.2237L52.6711 42.7091L51.4442 41.7697L52.9587 41.7827L53.422 40.2552L53.898 41.7827L55.4126 41.7697L54.1856 42.7091L54.6489 44.2237ZM48.6273 44.2237L47.4005 43.285L46.1735 44.2237L46.6491 42.7091L45.4098 41.7697L46.9372 41.7827L47.4005 40.2552L47.8638 41.7827L49.3783 41.7697L48.1515 42.7091L48.6273 44.2237ZM51.6443 34.9344L50.4174 33.9956L49.1905 34.9344L49.6665 33.4199L48.4267 32.4806H49.9542L50.4174 30.9659L50.8805 32.4806H52.408L51.1688 33.4071L51.6443 34.9344ZM56.4516 38.5025L55.2249 37.5634L53.9978 38.5025L54.4739 36.9875L53.2468 36.0487L54.7615 36.061L55.2249 34.5337L55.7006 36.061L57.2154 36.0487L55.9885 36.9875L56.4516 38.5025ZM46.8246 38.5025L45.5977 37.5634L44.3708 38.5025L44.8464 36.9875L43.6071 36.0487L45.1345 36.061L45.5977 34.5337L46.0608 36.061L47.5755 36.0487L46.3487 36.9875L46.8246 38.5025Z" fill="white"/>
<defs>
<filter id="filter0_d_260_257" x="0" y="0" width="104" height="104" filterUnits="userSpaceOnUse" color-interpolation-filters="sRGB">
<feFlood flood-opacity="0" result="BackgroundImageFix"/>
<feColorMatrix in="SourceAlpha" type="matrix" values="0 0 0 0 0 0 0 0 0 0 0 0 0 0 0 0 0 0 127 0" result="hardAlpha"/>
<feOffset dy="4"/>
<feGaussianBlur stdDeviation="2"/>
<feComposite in2="hardAlpha" operator="out"/>
<feColorMatrix type="matrix" values="0 0 0 0 0 0 0 0 0 0 0 0 0 0 0 0 0 0 0.25 0"/>
<feBlend mode="normal" in2="BackgroundImageFix" result="effect1_dropShadow_260_257"/>
<feBlend mode="normal" in="SourceGraphic" in2="effect1_dropShadow_260_257" result="shape"/>
</filter>
</defs>
</svg>
