<svg width="104" height="104" viewBox="0 0 104 104" fill="none" xmlns="http://www.w3.org/2000/svg">
<g filter="url(#filter0_d_260_265)">
<circle cx="52" cy="48" r="48" fill="white"/>
</g>
<path d="M52.5454 20C60.1505 20 67.038 23.0838 72.022 28.0689C77.007 33.0529 80.0908 39.9403 80.0908 47.5454C80.0908 55.1505 77.007 62.038 72.022 67.022C67.038 72.007 60.1505 75.0908 52.5454 75.0908C44.9403 75.0908 38.0529 72.007 33.0689 67.022C28.0838 62.038 25 55.1505 25 47.5454C25 39.9403 28.0838 33.0529 33.0689 28.0689C38.0529 23.0838 44.9403 20 52.5454 20Z" fill="#999999"/>
<path d="M52.5442 22.0959C59.5716 22.0959 65.9361 24.9452 70.5402 29.5493C75.1444 34.1535 77.9947 40.5169 77.9947 47.5442C77.9947 54.5716 75.1444 60.9361 70.5402 65.5402C65.9361 70.1444 59.5716 72.9947 52.5442 72.9947C45.5255 72.9947 39.1611 70.1422 34.5558 65.5348C29.9463 60.9361 27.0959 54.5716 27.0959 47.5442C27.0959 40.5169 29.9452 34.1535 34.5493 29.5493C39.1535 24.9452 45.5169 22.0959 52.5442 22.0959Z" fill="white"/>
<path d="M75.5739 44.0663C73.6091 32.8588 63.8294 24.3423 52.0602 24.3423C50.9067 24.3423 49.7716 24.4262 48.6622 24.5844C37.6516 26.4329 29.261 36.0093 29.261 47.545C29.261 60.4053 39.6863 70.8316 52.5455 70.8316C65.4079 70.8316 75.8321 60.4053 75.8321 47.545C75.8321 46.3625 75.7439 45.2004 75.5739 44.0663Z" fill="#00008B"/>
<path fill-rule="evenodd" clip-rule="evenodd" d="M40.8657 49.9144L42.0105 53.4899L45.5301 52.1535L43.4459 55.3008L46.6836 57.2128L42.938 57.5399L43.4588 61.2769L40.8657 58.5363L38.2639 61.2769L38.7858 57.5399L35.0381 57.2128L38.2736 55.3008L36.1915 52.1535L39.7122 53.4899L40.8657 49.9144ZM71.5239 56.3639L72.0651 58.0618L73.6092 57.4786L73.3284 58.0564L72.7559 58.9215L72.8388 58.971C72.5024 59.5674 72.1398 60.1487 71.752 60.713L71.5239 60.472L70.2897 61.774L70.5265 59.9975L68.75 59.8383L70.2897 58.9215L69.2934 57.4291L70.9687 58.0618L71.5239 56.3639ZM71.3281 34.1167L70.2897 35.2131L70.5265 33.4366L68.75 33.2774L70.039 32.5081C70.491 33.0267 70.9203 33.5615 71.3281 34.1167ZM63.7047 40.5866L64.2577 42.2964L65.9331 41.6637L64.9378 43.1582L66.4764 44.0739L64.701 44.2213L64.9378 45.9967L63.7047 44.6969L62.4705 45.9967L62.7191 44.2213L60.9318 44.0739L62.4705 43.1582L61.486 41.6637L63.1602 42.2964L63.7047 40.5866ZM75.5062 45.9311L75.8139 46.6886C75.8246 46.9715 75.8311 47.2578 75.8311 47.544C75.8311 47.87 75.8225 48.1939 75.8096 48.5156L75.5062 48.3295L74.5335 48.9277L74.8057 47.8087L73.9234 47.0727L75.0768 46.9941L75.5062 45.9311Z" fill="white"/>
<path d="M35.0854 32.1399L54.1961 41.6957H58.1686V39.7181L37.7936 29.5263C36.8209 30.3225 35.916 31.1984 35.0854 32.1399ZM30.6082 39.7159C31.2815 37.831 32.1957 36.0411 33.3283 34.3908L53.3514 24.3755C55.0074 24.4616 56.6181 24.7209 58.1686 25.1298V25.9324L30.6082 39.7159Z" fill="white"/>
<path d="M32.4414 35.7905H37.4717V41.6966H43.3907V35.7905H58.1695V29.8715H43.3907V26.1292C41.245 27.0487 39.2497 28.2856 37.4717 29.7983V29.8715H37.3845C35.4203 31.557 33.7499 33.5573 32.4414 35.7905Z" fill="white"/>
<path d="M33.1868 34.6011H38.6485V41.6962H42.2014V34.6011H58.1692V31.0482H42.2014V26.6797C40.954 27.2985 39.7649 28.0285 38.6485 28.8607V31.0482H36.1092C35.0224 32.1307 34.0443 33.3229 33.1868 34.6011Z" fill="#FF0000"/>
<path d="M31.6856 37.1904L34.5069 35.7787H37.1549L30.9185 38.9012C31.1519 38.318 31.407 37.7477 31.6856 37.1904ZM54.4999 24.4646C55.1918 24.5345 55.8761 24.6346 56.5475 24.7648L46.3321 29.8715H43.6969L54.4999 24.4646ZM58.1701 41.6966L46.3321 35.7787H48.9822L58.1594 40.3732V41.6966H58.1701Z" fill="#FF0000"/>
<defs>
<filter id="filter0_d_260_265" x="0" y="0" width="104" height="104" filterUnits="userSpaceOnUse" color-interpolation-filters="sRGB">
<feFlood flood-opacity="0" result="BackgroundImageFix"/>
<feColorMatrix in="SourceAlpha" type="matrix" values="0 0 0 0 0 0 0 0 0 0 0 0 0 0 0 0 0 0 127 0" result="hardAlpha"/>
<feOffset dy="4"/>
<feGaussianBlur stdDeviation="2"/>
<feComposite in2="hardAlpha" operator="out"/>
<feColorMatrix type="matrix" values="0 0 0 0 0 0 0 0 0 0 0 0 0 0 0 0 0 0 0.25 0"/>
<feBlend mode="normal" in2="BackgroundImageFix" result="effect1_dropShadow_260_265"/>
<feBlend mode="normal" in="SourceGraphic" in2="effect1_dropShadow_260_265" result="shape"/>
</filter>
</defs>
</svg>
